<svg width="998" height="151" viewBox="0 0 998 151" fill="none" xmlns="http://www.w3.org/2000/svg">
<path d="M441.267 58.1124V42.6999H455.315V65.9791C448.813 70.635 439.903 73.1234 431.715 73.1234C413.814 73.1234 400.729 61.0022 400.729 43.904C400.729 26.8059 413.814 14.6846 432.036 14.6846C442.552 14.6846 451.061 18.2969 456.599 24.9596L446.484 34.1107C442.631 29.8562 438.216 27.8494 432.839 27.8494C423.206 27.8494 416.784 34.191 416.784 43.904C416.784 53.3762 423.206 59.9586 432.678 59.9586C435.648 59.9586 438.458 59.3967 441.267 58.1124ZM491.32 73.1234C474.703 73.1234 464.91 63.7315 464.91 46.9544V15.8084H480.803V46.4728C480.803 56.1055 484.817 59.9586 491.48 59.9586C498.062 59.9586 502.077 56.1055 502.077 46.4728V15.8084H517.729V46.9544C517.729 63.7315 507.937 73.1234 491.32 73.1234ZM569.383 71.9996L564.969 61.0825H541.208L536.793 71.9996H520.578L545.383 15.8084H561.036L585.921 71.9996H569.383ZM545.864 49.3626H560.312L553.089 31.3814L545.864 49.3626ZM625.185 71.9996L614.99 57.0688H606.32V71.9996H590.427V15.8084H616.114C631.446 15.8084 641.078 23.7555 641.078 36.5992C641.078 44.8673 637.064 50.968 630.081 54.3395L642.203 71.9996H625.185ZM625.023 36.5992C625.023 31.3814 621.733 28.331 615.151 28.331H606.32V44.787H615.151C621.733 44.787 625.023 41.7366 625.023 36.5992ZM691.911 71.9996L687.495 61.0825H663.734L659.32 71.9996H643.104L667.909 15.8084H683.562L708.447 71.9996H691.911ZM668.39 49.3626H682.84L675.615 31.3814L668.39 49.3626ZM750.841 15.8084H766.414V71.9996H753.33L728.526 42.0577V71.9996H712.953V15.8084H726.036L750.841 45.7503V15.8084ZM789.586 71.9996V28.4113H772.328V15.8084H822.659V28.4113H805.481V71.9996H789.586ZM844.314 59.7178H873.693V71.9996H828.58V15.8084H872.65V28.0902H844.314V37.5624H869.279V49.4429H844.314V59.7178ZM898.247 59.7178H927.627V71.9996H882.513V15.8084H926.583V28.0902H898.247V37.5624H923.211V49.4429H898.247V59.7178ZM936.447 71.9996V15.8084H963.018C981.641 15.8084 994.405 26.6453 994.405 43.904C994.405 61.1627 981.641 71.9996 963.018 71.9996H936.447ZM952.341 59.3165H962.375C971.927 59.3165 978.349 53.6171 978.349 43.904C978.349 34.191 971.927 28.4916 962.375 28.4916H952.341V59.3165Z" fill="#010101"/>
<path d="M407.279 149.909V97.1123H419.573L441.446 133.014H434.959L456.229 97.1123H468.523L468.674 149.909H454.947L454.796 118.005H457.134L441.22 144.705H434.582L418.215 118.005H421.081V149.909H407.279ZM476.903 149.909L500.209 97.1123H514.917L538.298 149.909H522.761L504.508 104.428H510.391L492.139 149.909H476.903ZM489.65 139.651L493.496 128.639H519.292L523.138 139.651H489.65ZM555.116 149.909V108.954H538.9V97.1123H586.191V108.954H570.05V149.909H555.116ZM609.48 117.552H633.993V128.715H609.48V117.552ZM610.536 138.369H638.141V149.909H595.752V97.1123H637.16V108.652H610.536V138.369ZM650.426 149.909V97.1123H674.561C679.389 97.1123 683.537 97.8917 687.006 99.4505C690.526 101.009 693.242 103.272 695.152 106.238C697.063 109.155 698.018 112.624 698.018 116.647C698.018 120.619 697.063 124.064 695.152 126.98C693.242 129.846 690.526 132.059 687.006 133.617C683.537 135.126 679.389 135.88 674.561 135.88H658.722L665.36 129.62V149.909H650.426ZM683.084 149.909L669.961 130.676H685.875L699.074 149.909H683.084ZM665.36 131.204L658.722 124.34H673.656C676.774 124.34 679.087 123.661 680.595 122.304C682.154 120.946 682.934 119.061 682.934 116.647C682.934 114.183 682.154 112.272 680.595 110.915C679.087 109.557 676.774 108.878 673.656 108.878H658.722L665.36 102.015V131.204ZM710.255 149.909V97.1123H725.189V149.909H710.255ZM733.476 149.909L756.782 97.1123H771.489L794.871 149.909H779.334L761.081 104.428H766.964L748.711 149.909H733.476ZM746.222 139.651L750.069 128.639H775.864L779.711 139.651H746.222ZM803.102 149.909V97.1123H818.036V138.068H843.228V149.909H803.102ZM903.444 150.965C895.651 150.965 889.566 148.828 885.192 144.554C880.817 140.28 878.63 134.221 878.63 126.377V97.1123H893.564V125.924C893.564 130.45 894.444 133.693 896.204 135.654C898.014 137.615 900.478 138.596 903.595 138.596C906.713 138.596 909.151 137.615 910.911 135.654C912.671 133.693 913.551 130.45 913.551 125.924V97.1123H928.259V126.377C928.259 134.221 926.072 140.28 921.697 144.554C917.322 148.828 911.238 150.965 903.444 150.965ZM955.723 138.218L954.894 121.474L977.597 97.1123H994.039L971.412 121.625L963.115 130.299L955.723 138.218ZM942.373 149.909V97.1123H957.157V149.909H942.373ZM977.823 149.909L960.626 128.112L970.356 117.703L995.17 149.909H977.823Z" fill="#010101"/>
<path d="M350 150H199.009L154.896 109.583H242.201C219.808 90.3958 197.394 71.1875 175.001 51.9791C136.895 84.6666 98.7692 117.313 60.6635 150H0C58.3538 99.9792 116.668 50 175.001 0C233.334 50 291.667 99.9792 350 150Z" fill="#234640"/>
</svg>
