<svg width="600" height="335" viewBox="0 0 600 335" fill="none" xmlns="http://www.w3.org/2000/svg">
<path d="M33.7149 257.124C29.2731 257.124 25.1524 256.428 21.3528 255.037C17.5532 253.592 14.2621 251.558 11.4793 248.936C8.74997 246.314 6.60935 243.237 5.0574 239.705C3.50546 236.119 2.72949 232.186 2.72949 227.904C2.72949 223.623 3.50546 219.717 5.0574 216.185C6.60935 212.599 8.77672 209.495 11.5595 206.873C14.3423 204.251 17.6335 202.244 21.4331 200.852C25.2862 199.407 29.4872 198.685 34.036 198.685C39.334 198.685 44.0701 199.568 48.2443 201.334C52.4185 203.1 55.8703 205.642 58.5996 208.96L48.4851 218.111C46.5586 216.024 44.4715 214.472 42.2238 213.455C40.0297 212.385 37.568 211.85 34.8387 211.85C32.4305 211.85 30.2364 212.224 28.2563 212.974C26.2763 213.723 24.5905 214.82 23.1991 216.265C21.8077 217.656 20.7107 219.342 19.9079 221.322C19.1587 223.249 18.7841 225.443 18.7841 227.904C18.7841 230.259 19.1587 232.426 19.9079 234.407C20.7107 236.387 21.8077 238.099 23.1991 239.544C24.5905 240.935 26.2495 242.032 28.1761 242.835C30.1561 243.584 32.3235 243.959 34.6782 243.959C37.0329 243.959 39.334 243.584 41.5817 242.835C43.8293 242.032 46.1037 240.695 48.4049 238.822L57.3152 249.98C54.1043 252.281 50.3849 254.047 46.1572 255.278C41.9295 256.508 37.7821 257.124 33.7149 257.124ZM43.2674 247.892V226.7H57.3152V249.98L43.2674 247.892ZM93.3202 257.124C85.0253 257.124 78.5499 254.849 73.8941 250.301C69.2382 245.752 66.9103 239.303 66.9103 230.955V199.809H82.8044V230.473C82.8044 235.29 83.7409 238.741 85.614 240.828C87.5405 242.915 90.1628 243.959 93.4807 243.959C96.7987 243.959 99.3942 242.915 101.267 240.828C103.14 238.741 104.077 235.29 104.077 230.473V199.809H119.73V230.955C119.73 239.303 117.402 245.752 112.746 250.301C108.09 254.849 101.615 257.124 93.3202 257.124ZM122.578 256L147.383 199.809H163.036L187.921 256H171.384L151.958 207.595H158.22L138.793 256H122.578ZM136.144 245.083L140.238 233.363H167.692L171.786 245.083H136.144ZM192.427 256V199.809H218.114C223.251 199.809 227.666 200.638 231.359 202.297C235.105 203.956 237.995 206.364 240.028 209.522C242.062 212.626 243.079 216.318 243.079 220.6C243.079 224.827 242.062 228.493 240.028 231.597C237.995 234.647 235.105 237.002 231.359 238.661C227.666 240.266 223.251 241.069 218.114 241.069H201.257L208.321 234.407V256H192.427ZM227.185 256L213.217 235.53H230.155L244.203 256H227.185ZM208.321 236.092L201.257 228.787H217.151C220.469 228.787 222.93 228.065 224.536 226.62C226.195 225.175 227.024 223.168 227.024 220.6C227.024 217.977 226.195 215.944 224.536 214.499C222.93 213.054 220.469 212.331 217.151 212.331H201.257L208.321 205.027V236.092ZM245.104 256L269.909 199.809H285.562L310.447 256H293.911L274.484 207.595H280.746L261.32 256H245.104ZM258.671 245.083L262.765 233.363H290.218L294.312 245.083H258.671ZM314.953 256V199.809H328.037L359.023 237.216H352.842V199.809H368.415V256H355.33L324.345 218.593H330.526V256H314.953ZM391.587 256V212.412H374.328V199.809H424.659V212.412H407.481V256H391.587ZM445.19 221.563H471.279V233.443H445.19V221.563ZM446.314 243.718H475.694V256H430.58V199.809H474.65V212.091H446.314V243.718ZM499.124 221.563H525.212V233.443H499.124V221.563ZM500.247 243.718H529.627V256H484.514V199.809H528.584V212.091H500.247V243.718ZM538.447 256V199.809H565.018C571.226 199.809 576.684 200.959 581.394 203.261C586.103 205.562 589.769 208.799 592.391 212.974C595.067 217.148 596.405 222.125 596.405 227.904C596.405 233.631 595.067 238.607 592.391 242.835C589.769 247.009 586.103 250.247 581.394 252.548C576.684 254.849 571.226 256 565.018 256H538.447ZM554.341 243.317H564.376C567.587 243.317 570.369 242.728 572.724 241.551C575.132 240.32 577.005 238.554 578.343 236.253C579.681 233.898 580.35 231.115 580.35 227.904C580.35 224.64 579.681 221.857 578.343 219.556C577.005 217.255 575.132 215.516 572.724 214.338C570.369 213.107 567.587 212.492 564.376 212.492H554.341V243.317Z" fill="white"/>
<path d="M9.28027 333.909V281.112H21.5745L43.4475 317.014H36.9611L58.2307 281.112H70.5249L70.6757 333.909H56.9485L56.7977 302.005H59.1358L43.2213 328.705H36.5839L20.2168 302.005H23.083V333.909H9.28027ZM78.9047 333.909L102.211 281.112H116.919L140.3 333.909H124.763L106.51 288.428H112.393L94.1404 333.909H78.9047ZM91.6514 323.651L95.498 312.639H121.294L125.14 323.651H91.6514ZM157.118 333.909V292.954H140.902V281.112H188.193V292.954H172.052V333.909H157.118ZM211.482 301.552H235.995V312.715H211.482V301.552ZM212.538 322.369H240.143V333.909H197.754V281.112H239.162V292.652H212.538V322.369ZM252.428 333.909V281.112H276.563C281.391 281.112 285.539 281.891 289.008 283.45C292.528 285.009 295.244 287.272 297.154 290.238C299.065 293.155 300.02 296.624 300.02 300.647C300.02 304.619 299.065 308.064 297.154 310.98C295.244 313.846 292.528 316.059 289.008 317.617C285.539 319.126 281.391 319.88 276.563 319.88H260.724L267.362 313.62V333.909H252.428ZM285.086 333.909L271.963 314.676H287.877L301.076 333.909H285.086ZM267.362 315.204L260.724 308.34H275.658C278.776 308.34 281.089 307.661 282.597 306.304C284.156 304.946 284.936 303.061 284.936 300.647C284.936 298.183 284.156 296.272 282.597 294.915C281.089 293.557 278.776 292.878 275.658 292.878H260.724L267.362 286.015V315.204ZM312.257 333.909V281.112H327.191V333.909H312.257ZM335.478 333.909L358.784 281.112H373.491L396.873 333.909H381.336L363.083 288.428H368.966L350.713 333.909H335.478ZM348.224 323.651L352.071 312.639H377.866L381.713 323.651H348.224ZM405.104 333.909V281.112H420.038V322.068H445.23V333.909H405.104ZM505.446 334.965C497.653 334.965 491.568 332.828 487.194 328.554C482.819 324.28 480.632 318.221 480.632 310.377V281.112H495.566V309.924C495.566 314.45 496.446 317.693 498.206 319.654C500.016 321.615 502.48 322.596 505.597 322.596C508.715 322.596 511.153 321.615 512.913 319.654C514.673 317.693 515.553 314.45 515.553 309.924V281.112H530.261V310.377C530.261 318.221 528.074 324.28 523.699 328.554C519.324 332.828 513.24 334.965 505.446 334.965ZM557.725 322.218L556.896 305.474L579.599 281.112H596.041L573.414 305.625L565.117 314.299L557.725 322.218ZM544.375 333.909V281.112H559.159V333.909H544.375ZM579.825 333.909L562.628 312.112L572.358 301.703L597.172 333.909H579.825Z" fill="white"/>
<path d="M475 150H324.009L279.896 109.583H367.201C344.808 90.3958 322.394 71.1875 300.001 51.9791C261.895 84.6666 223.769 117.313 185.664 150H125C183.354 99.9792 241.668 50 300.001 0C358.334 50 416.667 99.9792 475 150Z" fill="white"/>
</svg>
